<?xml version="1.0" standalone="no"?>
<!DOCTYPE svg PUBLIC "-//W3C//DTD SVG 20010904//EN"
 "http://www.w3.org/TR/2001/REC-SVG-20010904/DTD/svg10.dtd">
<svg version="1.0" xmlns="http://www.w3.org/2000/svg"
 width="1024.000000pt" height="1422.000000pt" viewBox="0 0 1024.000000 1422.000000"
 preserveAspectRatio="xMidYMid meet">
<metadata>
Created by potrace 1.16, written by Peter Selinger 2001-2019
</metadata>
<g transform="translate(0.000000,1422.000000) scale(0.100000,-0.100000)"
fill="#000000" stroke="none">
<path fill="#000000" stroke="none" d="M0 7110 l0 -7110 5120 0 5120 0 0 7110
0 7110 -5120 0 -5120 0 0 -7110z"/>
<path fill="#ffffff" stroke="none" d="M4945 14110 c1037 -56 1921 -381 2615
-962 851 -714 1311 -1799 1277 -3013 -10 -326 -48 -598 -127 -900 -39 -149
-75 -268 -64 -210 3 17 16 84 29 150 41 208 57 353 62 581 12 459 -59 854
-221 1231 -30 70 -33 83 -20 94 8 6 14 19 14 29 0 23 -36 54 -54 47 -10 -4
-32 24 -74 96 -84 145 -199 295 -319 418 l-103 106 107 39 108 39 0 35 c0 30
-4 35 -26 38 -14 2 -79 -17 -145 -42 -96 -36 -122 -42 -135 -33 -255 183 -456
284 -704 356 -86 25 -264 61 -299 61 l-26 0 0 131 c0 245 -42 434 -139 634
-59 121 -135 233 -226 334 -114 125 -338 265 -490 306 -92 25 -256 30 -344 11
-281 -60 -501 -306 -602 -676 -11 -41 -22 -82 -25 -90 -3 -9 -22 20 -45 70
-62 132 -163 274 -269 380 -105 105 -194 169 -321 230 -131 62 -221 83 -369
83 -157 0 -243 -22 -396 -98 -356 -178 -611 -555 -665 -982 -18 -143 -7 -317
34 -537 1 -5 -40 -15 -91 -22 -313 -44 -661 -177 -932 -359 l-115 -77 -65 12
c-36 7 -109 20 -164 30 -96 17 -99 17 -117 -1 -22 -22 -23 -29 -6 -52 8 -12
49 -24 135 -39 l122 -21 -120 -115 c-461 -439 -756 -1023 -861 -1702 -31 -195
-33 -619 -6 -805 125 -838 553 -1606 1252 -2244 l90 -82 -50 6 c-92 12 -113
23 -235 115 -700 534 -1237 1291 -1517 2140 -236 716 -265 1473 -83 2216 276
1127 1031 2033 2131 2558 554 264 1210 431 1874 476 314 21 470 23 720 10z"/>
<path fill="#ffffff" stroke="none" d="M5995 13566 c324 -104 608 -430 704
-809 59 -229 53 -540 -14 -773 -74 -252 -234 -434 -452 -509 -94 -33 -228 -55
-335 -55 l-90 0 -59 54 c-92 85 -210 144 -324 161 -41 7 -49 13 -95 74 -68 90
-142 237 -186 367 -34 100 -36 116 -39 253 -1 80 -9 189 -15 242 -11 78 -11
115 0 190 60 446 266 750 556 824 89 22 248 14 349 -19z"/>
<path fill="#ffffff" stroke="none" d="M4190 13565 c36 -9 110 -38 165 -65
310 -152 544 -475 632 -872 28 -130 25 -505 -5 -646 -49 -226 -126 -378 -256
-507 -176 -174 -413 -254 -721 -242 -257 10 -439 88 -613 260 -231 228 -368
629 -349 1022 17 347 192 684 459 886 220 165 450 220 688 164z"/>
<path fill="#ffffff" stroke="none" d="M7093 12125 c132 -33 270 -86 398 -151
121 -62 279 -164 276 -179 -1 -5 -78 -44 -172 -86 -318 -142 -657 -322 -1040
-552 -227 -136 -237 -143 -233 -171 6 -43 44 -29 238 89 430 260 978 544 1269
656 20 8 33 0 108 -73 145 -141 276 -307 363 -461 38 -67 36 -71 -44 -81 -80
-11 -346 -64 -511 -103 -360 -84 -789 -214 -1120 -341 -147 -56 -150 -58 -150
-87 0 -20 6 -31 16 -33 9 -2 114 33 232 77 474 177 1025 325 1526 411 68 11
125 20 126 18 7 -7 77 -171 105 -249 46 -122 106 -364 132 -530 19 -125 22
-183 22 -439 1 -315 -7 -394 -60 -665 -141 -713 -517 -1407 -1074 -1979 -197
-204 -251 -246 -377 -296 -529 -211 -1141 -326 -1963 -369 -342 -18 -1331 -34
-1765 -28 -431 6 -675 17 -943 42 l-154 14 -66 55 c-201 164 -438 406 -611
621 -446 555 -715 1190 -772 1825 -16 171 -6 488 21 664 87 577 350 1128 728
1527 87 91 241 230 279 253 23 13 420 -98 683 -191 286 -101 640 -252 922
-394 53 -27 104 -46 112 -43 18 7 27 29 20 48 -6 17 -364 191 -594 289 -287
123 -649 248 -925 322 -55 14 -107 28 -115 31 -22 8 130 103 285 179 206 101
478 183 701 209 l50 6 34 -87 c143 -379 385 -614 728 -705 101 -26 328 -36
455 -18 188 25 345 87 478 187 67 50 70 52 50 21 -37 -55 -80 -155 -96 -221
-19 -80 -19 -225 0 -306 62 -260 291 -465 556 -498 l64 -8 27 -55 c80 -164 80
-413 -1 -596 -17 -38 -24 -44 -43 -39 -13 3 -189 35 -393 71 -203 36 -532 94
-730 129 -449 79 -774 129 -1020 155 -104 11 -217 24 -250 28 l-60 8 125 13
c69 7 219 21 333 31 227 19 250 26 227 70 -11 21 -16 22 -93 16 -806 -66
-1404 -157 -2071 -316 -136 -32 -156 -41 -156 -71 0 -37 28 -37 188 3 135 33
503 111 627 133 l39 7 -41 -45 c-53 -57 -68 -88 -83 -165 -17 -82 -8 -374 15
-502 94 -530 341 -1067 693 -1510 99 -124 332 -357 452 -453 319 -253 713
-443 1085 -521 265 -55 579 -71 810 -41 817 107 1596 726 2214 1760 101 168
285 541 356 720 32 83 62 153 65 157 3 3 57 11 121 17 79 7 137 18 183 35 253
96 494 394 562 697 l17 71 32 -6 c32 -6 65 11 65 34 0 18 -33 40 -61 40 -28 0
-29 2 -29 48 0 78 -27 182 -70 268 -57 116 -153 206 -292 273 -154 74 -415
133 -453 101 -18 -15 -20 -54 -2 -68 6 -5 50 -15 96 -22 191 -27 359 -95 459
-186 101 -91 151 -190 167 -331 8 -75 31 -69 -200 -47 -361 34 -958 29 -1435
-12 -189 -16 -220 -23 -220 -53 0 -39 19 -42 171 -26 452 44 1049 53 1429 21
259 -22 251 -20 243 -59 -39 -219 -212 -479 -395 -597 -129 -84 -225 -100
-608 -100 -474 0 -980 48 -1740 166 -124 19 -231 36 -237 39 -10 3 -8 16 6 52
47 121 69 296 52 416 -9 67 -38 169 -65 228 -6 13 6 19 61 32 404 98 622 540
452 915 -16 36 -29 66 -29 67 0 1 46 5 103 8 353 21 621 201 747 503 30 72 70
217 84 305 l6 36 88 -14 c48 -7 131 -25 185 -38z"/>
<path fill="#ffffff" stroke="none" d="M5123 11876 c25 -51 63 -121 86 -154
22 -34 41 -66 41 -71 0 -6 -12 -11 -26 -11 -77 0 -239 -66 -318 -129 -21 -17
-40 -31 -42 -31 -2 0 11 21 30 48 69 97 149 285 171 405 4 20 9 37 10 37 2 0
24 -42 48 -94z"/>
<path fill="#ffffff" stroke="none" d="M5338 11260 c44 -27 72 -76 72 -128 0
-141 -159 -208 -258 -108 -31 30 -36 42 -39 93 -3 46 0 65 16 91 29 45 77 72
131 72 27 0 58 -8 78 -20z"/>
<path fill="#ffffff" stroke="none" d="M9555 9716 c82 -22 228 -96 297 -150
124 -99 227 -260 268 -420 27 -108 27 -273 0 -382 -84 -334 -377 -575 -720
-592 -238 -11 -451 74 -612 246 -62 66 -138 180 -152 228 -4 13 5 51 22 95 79
199 183 567 213 754 10 62 18 84 38 103 54 49 221 117 336 135 57 10 250 -1
310 -17z"/>
<path fill="#ffffff" stroke="none" d="M4675 8810 c714 -59 1338 -404 1582
-875 52 -102 86 -198 108 -305 l17 -85 -83 -78 c-350 -326 -734 -552 -1104
-647 -171 -44 -302 -60 -497 -60 -386 0 -741 81 -1076 245 -279 137 -473 275
-703 505 -166 164 -329 360 -329 395 0 28 94 196 165 294 73 101 216 241 315
308 257 173 574 262 1050 293 321 21 405 22 555 10z"/>
<path fill="#ffffff" stroke="none" d="M8615 8474 c37 -62 156 -187 230 -239
151 -107 329 -165 507 -165 66 0 78 -3 78 -17 0 -36 -75 -348 -125 -523 -280
-972 -785 -1753 -1529 -2364 -59 -49 -109 -87 -111 -84 -2 2 -13 82 -25 178
-11 95 -32 241 -46 324 -29 174 -99 473 -115 493 -14 16 -61 17 -77 1 -18 -18
-15 -44 23 -199 129 -526 184 -1243 171 -2219 -4 -272 -11 -585 -17 -695 -21
-455 -23 -701 -4 -925 22 -264 18 -520 -9 -549 -51 -56 -263 -134 -472 -175
-289 -55 -554 -78 -939 -78 -485 0 -864 43 -1168 133 l-67 20 -29 64 c-33 72
-106 188 -160 254 l-36 44 30 -6 c17 -3 51 -9 78 -12 26 -3 78 -17 115 -29 77
-26 108 -21 118 19 9 36 -16 60 -90 84 -111 36 -179 44 -334 38 -171 -6 -276
-31 -409 -97 -92 -45 -193 -131 -193 -163 0 -26 28 -57 51 -57 9 0 41 20 70
45 29 25 54 43 56 42 1 -2 -6 -27 -17 -55 -24 -62 -50 -206 -50 -273 0 -46 -3
-51 -42 -80 -244 -178 -823 -281 -1483 -266 -531 13 -952 93 -1067 204 l-28
27 0 725 c0 740 8 1126 35 1721 16 346 43 802 49 807 2 2 32 -10 67 -27 116
-54 208 -73 359 -73 192 -1 341 41 484 137 l62 41 -7 -55 c-21 -161 -3 -419
40 -587 48 -188 149 -403 269 -573 89 -126 317 -355 452 -452 501 -361 1150
-526 1835 -468 938 81 1640 441 2035 1045 192 294 294 687 276 1060 -22 431
-115 815 -263 1084 -135 245 -344 466 -566 598 l-67 41 117 27 c350 79 763
203 805 243 44 41 61 99 56 191 -6 97 -47 189 -110 246 l-41 38 59 50 c100 85
395 386 487 497 210 253 411 561 554 852 49 97 91 177 95 178 3 0 18 -21 33
-46z"/>
<path fill="#ffffff" stroke="none" d="M1685 6391 c102 -27 226 -87 288 -138
47 -39 127 -136 127 -154 0 -5 -40 -9 -89 -9 -434 0 -802 -314 -872 -744 -16
-101 -7 -280 20 -371 11 -39 34 -101 51 -139 17 -38 28 -71 26 -73 -2 -3 -35
-9 -73 -15 -236 -37 -505 143 -639 425 -169 359 -48 836 270 1061 116 83 232
131 394 167 121 26 380 21 497 -10z"/>
<path fill="#ffffff" stroke="none" d="M5325 6275 c90 -23 213 -87 275 -144
l55 -50 -200 -1 c-295 0 -588 -38 -785 -100 -36 -11 -69 -20 -73 -20 -5 0 11
28 35 62 80 115 233 218 374 252 80 19 245 20 319 1z"/>
<path fill="#ffffff" stroke="none" d="M6475 6129 c140 -71 245 -149 365 -269
67 -66 141 -153 177 -205 191 -283 299 -634 334 -1090 37 -488 -90 -912 -381
-1270 -438 -537 -1279 -857 -2185 -832 -412 12 -753 94 -1094 263 -474 235
-814 599 -965 1033 -65 187 -80 280 -80 506 0 257 15 340 72 417 83 109 150
276 168 414 5 46 17 73 64 143 164 244 390 464 667 647 l123 82 238 6 c488 13
512 13 512 2 0 -14 -36 -71 -78 -126 -56 -75 -65 -168 -21 -224 10 -13 19 -39
19 -58 0 -18 9 -71 20 -116 63 -264 261 -470 530 -553 98 -31 299 -33 400 -6
264 73 467 277 542 544 17 63 21 100 19 196 -3 169 -3 201 -1 257 2 40 -3 59
-24 91 -23 34 -66 70 -101 83 -23 8 9 15 185 41 102 14 228 35 280 44 131 25
126 26 215 -20z"/>
<path fill="#ffffff" stroke="none" d="M2485 6010 c198 -20 435 -33 743 -39
l322 -6 -122 -90 c-142 -104 -383 -338 -474 -461 l-61 -81 -17 73 c-57 249
-218 458 -451 586 -27 15 -45 28 -40 28 6 0 51 -5 100 -10z"/>
<path fill="#ffffff" stroke="none" d="M2180 5975 c292 -68 509 -274 592 -562
30 -101 32 -303 4 -402 -41 -149 -114 -270 -229 -377 -120 -112 -237 -171
-397 -200 -334 -60 -682 112 -835 415 -64 128 -80 199 -80 356 1 162 14 225
75 350 101 204 295 360 515 414 99 24 263 27 355 6z"/>
<path fill="#ffffff" stroke="none" d="M5767 5970 c34 -12 63 -48 63 -78 0
-18 -14 -20 -272 -25 -379 -8 -648 -46 -937 -133 -174 -53 -161 -52 -161 -12
0 69 48 104 210 156 162 51 338 84 560 102 134 11 495 4 537 -10z"/>
<path fill="#ffffff" stroke="none" d="M5817 5768 c16 -27 16 -206 -2 -283
-44 -201 -201 -390 -385 -467 -28 -11 -52 -19 -54 -17 -3 2 2 31 10 64 18 78
18 196 -1 268 -20 76 -20 73 17 86 74 26 128 90 128 151 0 152 -307 215 -450
93 -43 -37 -67 -95 -56 -137 16 -66 94 -118 194 -132 l50 -6 17 -55 c25 -80
22 -201 -7 -288 -22 -67 -24 -70 -63 -78 -23 -5 -74 -4 -122 3 -161 21 -282
79 -393 190 -108 107 -170 234 -193 393 -6 36 -4 39 29 53 113 47 443 120 649
144 242 28 619 38 632 18z"/>
<path fill="#ffffff" stroke="none" d="M7720 1388 c83 -47 175 -144 212 -225
28 -59 33 -79 33 -148 0 -71 -4 -88 -33 -147 -115 -234 -504 -392 -1102 -448
-201 -18 -524 -23 -725 -11 -643 40 -1099 169 -1277 359 -72 76 -83 104 -83
203 0 78 3 91 37 160 21 40 53 95 72 121 l35 46 77 -24 c165 -53 465 -102 758
-124 177 -14 670 -14 851 0 469 35 849 123 1011 235 27 19 56 34 64 34 8 1 40
-13 70 -31z"/>
<path fill="#ffffff" stroke="none" d="M4226 1132 c159 -116 229 -363 149
-527 -166 -340 -933 -545 -1887 -505 -576 25 -950 104 -1181 249 -209 132
-267 325 -162 537 41 84 132 176 214 217 l52 26 36 -40 c93 -103 356 -181 763
-226 195 -21 761 -24 950 -5 463 48 807 144 978 273 20 15 40 28 43 28 3 1 24
-12 45 -27z"/>
<path fill="#000000" stroke="none" d="M5483 12469 c-107 -53 -173 -189 -173
-359 0 -249 146 -456 320 -454 230 3 347 349 213 632 -76 162 -237 242 -360
181z"/>
<path fill="#ffffff" stroke="none" d="M5659 12190 c52 -53 65 -135 30 -206
-56 -117 -189 -45 -189 102 0 115 90 173 159 104z"/>
<path fill="#000000" stroke="none" d="M4198 12324 c-165 -39 -372 -201 -338
-264 19 -36 55 -25 121 40 138 136 342 184 512 120 101 -38 163 -91 252 -215
17 -23 26 -27 47 -22 15 4 30 16 33 27 9 30 -37 104 -109 175 -133 130 -333
184 -518 139z"/>
<path fill="#000000" stroke="none" d="M4272 12019 c-124 -18 -227 -74 -317
-171 -90 -97 -105 -150 -47 -165 22 -5 30 -1 52 27 55 73 122 138 167 162 166
90 364 73 489 -42 45 -41 71 -49 92 -28 24 24 12 55 -37 101 -100 94 -249 137
-399 116z"/>
<path fill="#000000" stroke="none" d="M1370 10803 c-69 -4 -90 -15 -90 -44 0
-30 29 -36 155 -28 609 37 1324 -35 1969 -197 144 -36 166 -35 166 7 0 27 -22
35 -202 79 -324 77 -645 131 -988 166 -160 16 -845 28 -1010 17z"/>
<path fill="#000000" stroke="none" d="M6340 4639 c-509 -17 -1197 -52 -1740
-89 -559 -39 -1333 -104 -1364 -116 -24 -9 -30 -46 -30 -184 1 -330 131 -623
389 -875 126 -123 253 -212 430 -300 326 -161 628 -224 1019 -212 997 31 1781
542 1926 1257 24 120 29 313 9 425 -19 114 -1 105 -222 103 -106 0 -293 -5
-417 -9z"/>
<path fill="#ffffff" stroke="none" d="M6886 4548 c17 -27 17 -291 0 -379
-111 -591 -663 -1038 -1451 -1174 -436 -75 -791 -55 -1142 66 -609 210 -992
664 -993 1176 l0 112 33 5 c17 3 138 15 267 26 962 82 1919 140 2810 169 384
13 468 12 476 -1z"/>
</g>
</svg>
