<?xml version="1.0" standalone="no"?>
<!DOCTYPE svg PUBLIC "-//W3C//DTD SVG 20010904//EN"
 "http://www.w3.org/TR/2001/REC-SVG-20010904/DTD/svg10.dtd">
<svg version="1.0" xmlns="http://www.w3.org/2000/svg"
 width="862.000000pt" height="765.000000pt" viewBox="0 0 862.000000 765.000000"
 preserveAspectRatio="xMidYMid meet">
<metadata>
Created by potrace 1.16, written by Peter Selinger 2001-2019
</metadata>
<g transform="translate(0.000000,765.000000) scale(0.100000,-0.100000)"
fill="#000000" stroke="none">
<path fill="#000000" stroke="none" d="M5305 7488 c-201 -236 -408 -741 -519
-1273 -41 -197 -66 -392 -66 -517 0 -65 -2 -118 -5 -118 -3 0 -40 26 -83 58
-170 129 -294 199 -474 266 -256 95 -609 131 -858 87 l-95 -16 -105 106 c-193
194 -411 353 -744 539 -365 204 -588 297 -948 394 -214 57 -378 81 -378 53 0
-17 104 -169 190 -279 94 -120 376 -398 515 -510 236 -188 499 -359 707 -458
103 -49 296 -120 327 -120 9 0 23 -4 31 -10 12 -7 9 -15 -16 -47 -49 -61 -210
-378 -249 -493 -42 -119 -72 -176 -162 -307 -35 -50 -76 -118 -91 -150 -25
-53 -27 -68 -26 -178 0 -89 6 -143 22 -210 28 -111 92 -284 143 -387 22 -43
39 -81 39 -85 0 -5 -64 -8 -142 -9 -165 -1 -249 -19 -369 -80 -183 -92 -292
-293 -261 -480 13 -81 64 -190 121 -262 57 -72 161 -146 249 -178 64 -24 73
-30 69 -48 -3 -12 -62 -185 -132 -386 -357 -1031 -352 -1010 -322 -1155 22
-106 69 -198 134 -263 29 -29 53 -55 53 -58 0 -2 -7 -4 -17 -4 -27 0 -242 -98
-320 -146 -78 -48 -128 -99 -116 -117 4 -7 6 -22 4 -34 -3 -26 15 -35 102 -51
72 -14 360 18 667 73 243 43 290 65 290 134 0 12 6 21 13 21 6 0 109 9 227 20
118 11 236 20 263 20 26 0 217 -32 425 -71 207 -39 433 -78 502 -88 l125 -17
3 -31 c6 -60 29 -70 290 -124 132 -27 321 -73 420 -103 225 -68 253 -72 319
-51 59 19 64 27 56 84 -5 35 -14 49 -57 85 -80 69 -214 151 -351 217 -69 34
-125 63 -125 64 0 2 14 19 31 37 112 121 136 298 74 547 -14 57 -24 105 -23
106 2 2 77 -19 168 -46 185 -54 200 -56 200 -31 1 51 39 494 43 498 2 3 61
-12 130 -32 69 -20 132 -34 140 -31 13 5 89 129 300 497 49 85 92 158 95 162
7 6 137 -31 917 -262 l310 -91 124 133 c68 73 270 278 449 455 296 293 324
323 311 339 -25 31 -282 144 -489 216 -117 40 -444 131 -622 173 -291 69 -421
86 -907 125 -133 10 -246 21 -249 25 -3 3 2 13 11 22 15 15 22 15 66 4 63 -16
75 -9 68 39 -4 33 -2 39 20 49 22 10 25 17 20 44 -4 28 -1 35 25 50 26 15 29
21 23 45 -12 46 -11 56 10 60 52 10 36 44 -56 118 l-60 48 6 47 c4 32 3 49 -5
54 -18 11 -181 6 -300 -10 -174 -22 -340 -72 -457 -135 l-53 -28 0 66 c0 98
23 235 86 517 51 231 55 258 52 355 l-3 105 44 74 c172 291 309 820 362 1391
17 185 17 590 1 710 -23 160 -62 290 -87 290 -8 0 -30 -19 -50 -42z"/>
<path fill="#ffffff" stroke="none" d="M5123 6842 c80 -65 169 -181 229 -297
l43 -84 -18 -118 c-10 -65 -24 -163 -33 -218 -45 -311 -147 -663 -256 -885
-53 -110 -62 -122 -69 -102 -5 13 -15 22 -21 19 -15 -5 -15 -13 1 -158 13
-117 18 -84 -68 -479 -23 -102 -46 -225 -52 -275 l-12 -90 -71 0 c-54 -1 -82
-6 -116 -24 -156 -81 -290 -285 -290 -441 1 -74 55 -162 112 -183 16 -5 18 -4
-75 -61 -81 -50 -214 -111 -307 -141 -76 -24 -88 -39 -25 -30 82 11 145 31
238 74 303 141 505 349 549 565 11 52 17 61 53 84 48 31 174 85 246 107 90 26
228 46 367 53 l133 7 -8 -65 c-12 -103 -10 -135 7 -135 10 0 16 12 18 38 2 20
6 37 9 37 3 0 28 -17 55 -37 48 -37 48 -38 24 -46 -32 -11 -39 -32 -21 -67 19
-38 20 -36 -15 -49 -31 -10 -37 -29 -20 -62 10 -17 7 -20 -21 -26 -30 -6 -31
-7 -25 -46 6 -34 4 -38 -10 -33 -8 3 -33 9 -54 12 l-39 6 -75 -113 c-42 -63
-106 -148 -143 -189 -38 -42 -114 -131 -171 -197 -110 -130 -172 -189 -359
-339 -111 -90 -303 -223 -372 -258 -19 -10 -31 -24 -31 -36 0 -22 12 -25 41
-9 20 10 20 8 12 -93 -11 -145 -8 -415 7 -528 13 -98 53 -245 143 -525 49
-153 51 -165 51 -270 -1 -78 -6 -123 -18 -154 -23 -61 -86 -140 -140 -176 -50
-33 -53 -37 -31 -55 11 -9 18 -10 29 -1 17 15 69 -2 191 -62 85 -42 305 -180
305 -192 0 -3 -33 16 -72 43 -109 73 -166 104 -178 97 -22 -13 -8 -33 43 -60
72 -39 267 -174 267 -186 0 -16 -13 -10 -45 20 -55 54 -305 187 -331 177 -30
-12 -8 -29 119 -92 147 -73 206 -112 187 -124 -16 -10 -81 4 -213 44 -62 19
-186 51 -277 71 -167 35 -384 90 -427 106 -14 5 -23 17 -23 29 0 17 6 20 49
20 57 0 185 16 254 31 37 9 47 15 47 31 0 22 -2 22 -135 -2 -107 -19 -225 -11
-461 31 -126 22 -314 56 -419 74 l-190 33 140 -1 c134 -2 140 -1 140 18 0 20
-6 20 -270 19 -173 0 -329 -7 -435 -17 -91 -10 -239 -22 -330 -28 -91 -6 -172
-14 -180 -18 -8 -5 -17 -16 -19 -26 -3 -16 4 -17 83 -13 78 5 86 4 86 -12 0
-45 -90 -71 -395 -110 -126 -17 -278 -37 -337 -46 -59 -8 -117 -14 -129 -12
-18 2 -15 7 22 27 24 14 83 39 132 55 88 31 109 48 66 54 -40 7 -226 -66 -271
-105 -9 -8 -27 -13 -40 -11 -22 3 -22 4 11 27 19 14 82 46 140 72 62 28 107
54 109 63 6 27 -23 18 -161 -49 -122 -59 -129 -62 -93 -30 46 41 278 157 360
181 56 16 60 15 95 -3 20 -11 64 -30 99 -43 49 -18 65 -20 76 -10 24 19 8 38
-37 45 -62 10 -154 57 -223 115 -107 88 -161 228 -151 387 6 88 21 138 157
518 189 532 280 793 295 845 l15 56 183 -1 c165 0 192 3 290 28 121 30 199 59
330 123 l88 43 43 -18 c61 -27 80 -14 71 45 l-6 44 38 -5 c26 -5 44 -2 58 9
20 15 20 15 -2 54 l-22 39 37 9 c45 11 52 35 23 75 -28 37 -27 39 14 39 23 0
38 6 41 15 9 23 -4 64 -28 83 -77 63 -73 56 -53 85 22 34 13 57 -20 57 -40 0
-84 23 -160 84 -119 96 -304 176 -492 213 l-91 18 -40 75 c-23 42 -59 120 -81
175 l-40 99 52 14 c89 22 160 98 209 222 31 76 33 306 4 388 -17 51 -68 115
-110 138 -19 10 -19 12 6 65 15 29 56 130 93 224 37 93 85 203 108 244 40 74
136 209 186 264 28 31 20 34 -24 11 -41 -22 -100 -14 -233 32 -134 45 -392
180 -534 279 -198 137 -205 143 -226 203 -23 63 -45 153 -62 252 -13 71 -19
315 -9 325 10 10 164 -57 359 -155 371 -188 651 -381 880 -608 58 -57 100
-106 94 -108 -32 -13 -49 -33 -37 -44 8 -9 20 -9 50 1 66 21 401 55 468 47 33
-5 130 -17 215 -27 340 -42 635 -190 907 -454 110 -107 143 -129 143 -94 0 6
-30 42 -66 78 l-67 67 -5 94 c-9 183 47 535 137 858 43 153 55 189 132 398 11
27 12 27 102 -46z"/>
<path fill="#ffffff" stroke="none" d="M2630 3761 c178 -40 313 -101 452 -207
40 -30 90 -60 110 -66 36 -11 38 -12 32 -48 -6 -34 -3 -39 40 -74 25 -20 46
-41 46 -47 0 -5 -18 -12 -40 -15 -48 -8 -51 -25 -14 -75 l25 -34 -30 -3 c-45
-5 -58 -26 -38 -66 l16 -34 -41 -5 c-49 -7 -60 -21 -53 -66 6 -30 4 -33 -12
-26 -48 19 -90 17 -139 -8 -71 -35 -227 -96 -303 -118 -108 -31 -312 -52 -426
-44 -120 8 -197 32 -284 89 -211 137 -299 364 -221 569 55 145 191 245 397
291 99 23 356 16 483 -13z"/>
<path fill="#ffffff" stroke="none" d="M5950 3545 c384 -28 597 -64 1010 -170
265 -69 582 -181 753 -266 l98 -50 -427 -433 c-400 -407 -429 -433 -453 -426
-74 24 -443 133 -556 165 -71 21 -204 60 -295 87 -209 64 -331 98 -351 98 -9
0 -19 -8 -22 -17 -7 -22 -70 -135 -96 -172 -10 -14 -46 -75 -81 -136 -106
-186 -201 -345 -207 -345 -3 0 -63 18 -134 41 -71 23 -136 39 -144 35 -10 -4
-15 -20 -15 -50 0 -35 -3 -44 -14 -40 -11 4 -18 -7 -27 -38 l-12 -43 -8 30
c-3 17 -7 45 -8 63 -2 46 -18 40 -43 -18 -25 -57 -32 -52 -43 28 -8 63 -20 60
-29 -8 -4 -27 -11 -50 -15 -50 -5 0 -13 21 -18 48 -5 27 -14 46 -21 44 -7 -1
-12 4 -13 10 0 7 -11 101 -23 208 -13 107 -22 197 -19 199 2 3 92 -12 199 -33
108 -20 198 -35 201 -33 7 8 32 119 93 427 83 416 121 593 128 606 4 6 50 68
102 138 90 120 96 126 130 126 19 0 181 -11 360 -25z"/>
<path fill="#ffffff" stroke="none" d="M5225 2875 c-92 -451 -115 -558 -118
-561 -1 -1 -94 16 -207 37 -113 21 -206 39 -207 39 -8 0 44 -536 62 -632 6
-36 -4 -35 -115 0 -83 27 -84 28 -96 69 -18 60 -34 205 -34 303 0 87 18 408
25 446 3 13 38 43 92 79 198 131 420 319 575 486 51 54 93 97 94 96 2 -1 -30
-164 -71 -362z"/>
<path fill="#000000" stroke="none" d="M2948 5284 c-63 -19 -131 -95 -148
-164 -32 -135 64 -255 201 -253 177 3 290 207 192 347 -53 77 -141 102 -245
70z"/>
<path fill="#ffffff" stroke="none" d="M3136 5216 c57 -49 22 -146 -53 -146
-78 0 -112 94 -52 144 38 32 70 33 105 2z"/>
<path fill="#000000" stroke="none" d="M4378 4856 c-36 -19 -90 -81 -105 -120
-6 -17 -12 -52 -12 -77 -2 -87 34 -154 107 -200 88 -56 214 -32 269 50 46 67
54 173 18 240 -19 36 -85 98 -118 110 -40 15 -127 13 -159 -3z"/>
<path fill="#ffffff" stroke="none" d="M4507 4808 c30 -28 31 -85 3 -116 -46
-50 -140 -11 -140 58 0 68 87 105 137 58z"/>
<path fill="#000000" stroke="none" d="M3621 4801 c-9 -16 -6 -25 13 -47 22
-27 25 -27 65 -16 22 7 41 19 41 26 0 21 -32 43 -72 50 -31 6 -39 3 -47 -13z"/>
<path fill="#000000" stroke="none" d="M3157 4663 c-11 -10 -8 -19 16 -49 22
-28 22 -34 23 -314 0 -301 11 -398 54 -511 42 -112 89 -154 170 -154 97 1 210
83 341 247 88 110 136 186 225 355 56 104 65 117 99 128 45 16 49 20 41 41 -4
11 -12 14 -24 8 -9 -4 -38 -9 -64 -12 -76 -6 -173 45 -325 174 -73 62 -62 61
-260 35 -169 -22 -216 -17 -254 28 -27 33 -31 35 -42 24z"/>
<path fill="#ffffff" stroke="none" d="M3598 4313 c57 -24 135 -87 178 -144
73 -95 73 -90 13 -180 -69 -105 -209 -247 -279 -282 -110 -55 -170 -28 -214
96 -14 39 -30 97 -35 127 -13 70 -33 309 -26 320 3 4 26 21 53 36 85 50 225
63 310 27z"/>
<path fill="#000000" stroke="none" d="M3700 3280 c-9 -6 -10 -10 -3 -10 6 0
15 5 18 10 8 12 4 12 -15 0z"/>
<path fill="#000000" stroke="none" d="M6432 2574 c10 -10 20 -16 22 -13 3 3
-5 11 -17 18 -21 13 -21 12 -5 -5z"/>
</g>
</svg>
