<?xml version="1.0" standalone="no"?>
<!DOCTYPE svg PUBLIC "-//W3C//DTD SVG 20010904//EN"
 "http://www.w3.org/TR/2001/REC-SVG-20010904/DTD/svg10.dtd">
<svg version="1.0" xmlns="http://www.w3.org/2000/svg"
 width="920.000000pt" height="512.000000pt" viewBox="0 0 920.000000 512.000000"
 preserveAspectRatio="xMidYMid meet">
<metadata>
Created by potrace 1.16, written by Peter Selinger 2001-2019
</metadata>
<g transform="translate(0.000000,512.000000) scale(0.100000,-0.100000)"
fill="#000000" stroke="none">
<path d="M5485 4918 c-425 -56 -828 -435 -911 -856 -15 -77 -18 -190 -7 -255
l6 -38 66 6 c160 16 312 68 438 151 32 21 99 79 150 127 192 185 297 396 322
644 7 76 6 225 -3 229 0 0 -28 -3 -61 -8z"/>
<path d="M3708 3830 c-586 -53 -1012 -466 -1123 -1090 -51 -291 -19 -727 81
-1075 142 -497 479 -1069 766 -1299 235 -189 449 -219 738 -101 234 94 362
125 524 125 138 0 193 -12 379 -81 352 -131 476 -144 646 -63 314 148 683 615
877 1110 25 64 44 117 42 118 -2 1 -30 17 -63 36 -335 185 -537 457 -586 789
-16 113 -7 303 21 406 28 107 96 244 168 341 61 82 208 228 286 285 25 18 46
36 46 41 0 4 -35 45 -77 89 -243 254 -532 372 -908 372 -231 0 -304 -17 -680
-154 -67 -24 -112 -33 -175 -37 -100 -5 -123 1 -335 86 -173 69 -243 88 -375
102 -105 11 -126 11 -252 0z"/>
</g>
</svg>
